<?xml version="1.0" encoding="UTF-8" standalone="no"?>
<!DOCTYPE svg PUBLIC "-//W3C//DTD SVG 20010904//EN"
              "http://www.w3.org/TR/2001/REC-SVG-20010904/DTD/svg10.dtd">

<svg xmlns="http://www.w3.org/2000/svg"
     width="64.8649mm" height="30mm"
     viewBox="0 0 240 111">
  <path id="Selection"
        fill="none" stroke="black" stroke-width="1"
        d="M 240.00,0.00
           C 240.00,0.00 240.00,111.00 240.00,111.00
             240.00,111.00 0.00,111.00 0.00,111.00
             0.00,111.00 0.00,0.00 0.00,0.00
             0.00,0.00 240.00,0.00 240.00,0.00 Z
           M 56.38,7.23
           C 54.83,3.35 48.21,3.19 47.42,8.04
             46.92,11.12 49.38,13.39 50.31,16.09
             51.08,18.34 50.98,20.66 51.00,23.00
             46.53,23.04 44.23,23.02 40.00,24.90
             37.69,25.93 34.43,28.35 32.00,28.18
             28.59,27.95 16.65,19.74 13.04,20.84
             8.89,22.12 8.22,27.95 12.23,29.87
             15.57,31.48 18.09,27.75 22.00,28.52
             25.50,29.22 28.43,33.28 31.99,33.42
             35.83,33.56 38.33,28.97 46.00,26.79
             54.06,24.49 58.66,27.03 66.00,29.00
             68.58,26.08 72.49,22.11 76.72,22.09
             80.20,22.07 82.93,26.11 86.69,23.81
             90.47,21.49 88.61,14.72 84.02,14.74
             81.95,14.75 80.00,16.63 77.83,17.48
             77.83,17.48 70.09,19.79 70.09,19.79
             70.09,19.79 64.34,23.18 64.34,23.18
             64.34,23.18 53.00,23.18 53.00,23.18
             53.74,20.02 57.14,9.13 56.38,7.23 Z
           M 60.00,10.00
           C 60.00,10.00 61.00,11.00 61.00,11.00
             61.00,11.00 61.00,10.00 61.00,10.00
             61.00,10.00 60.00,10.00 60.00,10.00 Z
           M 16.00,18.00
           C 16.00,18.00 17.00,19.00 17.00,19.00
             17.00,19.00 17.00,18.00 17.00,18.00
             17.00,18.00 16.00,18.00 16.00,18.00 Z
           M 57.00,18.00
           C 57.00,18.00 58.00,19.00 58.00,19.00
             58.00,19.00 58.00,18.00 58.00,18.00
             58.00,18.00 57.00,18.00 57.00,18.00 Z
           M 5.00,19.00
           C 5.00,19.00 6.00,20.00 6.00,20.00
             6.00,20.00 6.00,19.00 6.00,19.00
             6.00,19.00 5.00,19.00 5.00,19.00 Z
           M 26.00,22.00
           C 26.00,22.00 27.00,23.00 27.00,23.00
             27.00,23.00 27.00,22.00 27.00,22.00
             27.00,22.00 26.00,22.00 26.00,22.00 Z
           M 71.92,30.33
           C 67.93,27.12 66.95,29.81 62.96,29.50
             62.96,29.50 57.00,28.21 57.00,28.21
             50.01,27.24 42.74,28.39 37.17,32.93
             33.20,36.16 25.16,47.22 33.00,50.00
             33.60,39.33 43.00,30.11 54.00,31.20
             62.92,32.08 66.78,38.01 71.00,45.00
             71.00,45.00 74.00,44.00 74.00,44.00
             74.00,44.00 69.00,35.00 69.00,35.00
             69.00,35.00 70.00,34.00 70.00,34.00
             79.50,45.69 77.00,57.90 77.00,72.15
             77.00,72.15 88.00,72.15 88.00,72.15
             91.05,72.93 93.72,75.07 96.96,74.72
             99.89,74.40 102.13,72.16 101.16,68.90
             98.97,62.21 92.57,67.92 88.91,68.90
             86.15,69.29 82.75,68.49 80.00,68.00
             80.00,68.00 81.00,51.00 81.00,51.00
             82.90,51.53 83.95,51.93 86.00,51.85
             89.45,51.73 98.04,48.41 99.16,44.87
             100.83,39.55 93.01,35.73 90.89,42.06
             90.09,44.01 90.58,45.15 90.89,47.00
             90.89,47.00 81.00,50.00 81.00,50.00
             79.15,43.05 77.91,35.14 71.92,30.33 Z
           M 70.00,54.00
           C 69.87,43.45 65.15,32.91 53.00,33.00
             53.00,33.00 53.00,36.00 53.00,36.00
             57.81,37.84 63.44,40.29 64.00,46.00
             68.45,51.56 67.00,62.07 67.00,69.00
             71.41,65.92 70.05,58.83 70.00,54.00 Z
           M 44.00,34.92
           C 30.53,41.33 36.95,54.45 34.11,67.00
             31.37,79.16 27.42,82.94 26.00,90.00
             34.77,85.47 39.47,65.42 38.98,56.00
             38.54,52.01 37.53,50.17 38.98,46.00
             42.69,36.85 48.74,39.54 51.00,33.00
             48.42,33.41 46.40,33.78 44.00,34.92 Z
           M 25.00,45.00
           C 25.00,45.00 16.99,43.62 16.99,43.62
             14.75,42.90 12.56,41.20 10.11,41.57
             5.71,42.23 4.92,48.80 9.14,50.36
             12.07,51.44 14.53,49.28 17.17,48.49
             17.17,48.49 24.00,47.00 24.00,47.00
             24.00,47.00 24.00,64.00 24.00,64.00
             24.00,64.00 3.07,62.00 3.07,62.00
             3.07,62.00 3.07,65.96 3.07,65.96
             4.58,74.63 11.71,68.28 16.00,67.03
             17.65,66.94 19.33,67.08 21.00,67.03
             22.37,67.16 24.20,67.43 25.43,67.03
             29.11,64.35 27.13,51.09 27.89,46.73
             28.81,41.49 31.04,40.81 30.00,35.00
             26.21,38.41 25.78,40.07 25.00,45.00 Z
           M 41.31,45.02
           C 38.97,49.69 40.66,53.50 40.66,58.00
             40.66,58.00 40.00,70.00 40.00,70.00
             46.86,65.42 42.10,54.45 43.85,49.00
             45.75,43.11 51.42,39.93 56.91,43.71
             58.68,44.93 59.69,46.37 61.00,48.00
             61.00,48.00 64.00,47.00 64.00,47.00
             58.00,33.97 45.40,36.86 41.31,45.02 Z
           M 19.00,40.00
           C 19.00,40.00 20.00,41.00 20.00,41.00
             20.00,41.00 20.00,40.00 20.00,40.00
             20.00,40.00 19.00,40.00 19.00,40.00 Z
           M 57.99,47.13
           C 55.37,42.62 45.96,41.76 47.00,50.00
             48.72,49.10 50.81,47.64 52.85,48.32
             55.24,49.12 55.76,51.84 55.94,54.00
             56.41,59.38 55.95,65.70 55.00,71.00
             55.00,71.00 56.00,72.00 56.00,72.00
             56.00,72.00 57.99,72.00 57.99,72.00
             59.05,67.66 60.05,50.72 57.99,47.13 Z
           M 122.77,59.26
           C 126.49,56.45 126.83,50.65 122.77,48.17
             120.37,46.70 115.81,47.00 113.00,47.00
             113.00,47.00 114.00,68.00 114.00,68.00
             114.00,68.00 114.00,61.00 114.00,61.00
             116.98,60.97 120.26,61.16 122.77,59.26 Z
           M 51.00,61.00
           C 55.29,58.13 54.00,52.71 54.00,48.00
             49.69,51.23 51.00,55.97 51.00,61.00 Z
           M 72.00,48.00
           C 72.00,48.00 70.74,73.01 70.74,73.01
             70.74,73.01 67.00,91.00 67.00,91.00
             72.12,87.96 72.29,83.32 73.23,77.96
             75.55,64.78 75.00,61.03 75.00,48.00
             75.00,48.00 72.00,48.00 72.00,48.00 Z
           M 49.00,60.00
           C 49.05,55.39 49.89,52.92 46.00,50.00
             46.00,50.00 44.18,71.00 44.18,71.00
             44.18,71.00 40.00,88.00 40.00,88.00
             46.84,81.95 48.90,68.83 49.00,60.00 Z
           M 61.00,50.00
           C 61.85,61.31 60.84,77.11 55.00,87.00
             55.00,87.00 59.00,88.00 59.00,88.00
             64.61,73.86 65.00,64.84 65.00,50.00
             65.00,50.00 61.00,50.00 61.00,50.00 Z
           M 29.45,73.89
           C 32.76,71.95 34.20,56.51 31.98,53.59
             31.05,52.38 30.23,52.43 29.00,52.00
             29.96,59.78 29.17,66.48 27.00,73.89
             27.71,73.99 28.31,74.40 29.45,73.89 Z
           M 129.00,68.00
           C 129.00,68.00 131.00,68.00 131.00,68.00
             131.00,68.00 132.02,58.14 132.02,58.14
             132.02,58.14 137.00,53.00 137.00,53.00
             137.00,53.00 130.00,53.00 130.00,53.00
             130.00,53.00 129.00,68.00 129.00,68.00 Z
           M 143.00,68.00
           C 143.00,68.00 143.00,53.00 143.00,53.00
             141.49,56.80 141.49,64.20 143.00,68.00 Z
           M 156.00,68.00
           C 157.37,63.19 161.33,57.92 160.00,53.00
             160.00,53.00 154.00,65.00 154.00,65.00
             154.00,65.00 148.00,53.00 148.00,53.00
             147.32,57.75 151.38,66.38 156.00,68.00 Z
           M 172.00,68.07
           C 181.22,66.96 181.37,53.73 170.00,53.49
             159.85,56.45 163.50,69.10 172.00,68.07 Z
           M 184.00,68.00
           C 184.01,59.55 183.60,58.63 191.00,54.00
             191.00,54.00 184.00,53.00 184.00,53.00
             182.49,56.80 182.49,64.20 184.00,68.00 Z
           M 195.00,53.00
           C 195.00,56.69 194.13,64.71 197.43,66.98
             199.54,68.43 206.04,67.81 209.00,68.00
             209.00,68.00 209.00,53.00 209.00,53.00
             209.00,53.00 207.00,53.00 207.00,53.00
             207.00,55.81 207.32,60.52 205.98,62.94
             204.14,66.24 200.27,67.37 198.02,63.77
             196.63,61.54 197.00,55.75 197.00,53.00
             197.00,53.00 195.00,53.00 195.00,53.00 Z
           M 214.00,68.00
           C 214.00,68.00 216.16,68.00 216.16,68.00
             216.00,66.14 215.90,61.61 216.16,60.02
             217.34,56.15 220.68,54.90 222.83,58.24
             224.29,60.53 224.00,65.29 224.00,68.00
             224.00,68.00 226.00,68.00 226.00,68.00
             226.00,65.42 225.68,60.32 227.02,58.22
             228.63,55.64 231.23,55.77 232.83,58.22
             234.50,60.83 233.66,65.25 235.00,69.00
             235.57,66.98 235.83,66.15 235.95,64.00
             236.72,50.53 228.61,53.82 225.00,53.82
             225.00,53.82 215.00,53.00 215.00,53.00
             215.00,53.00 214.00,68.00 214.00,68.00 Z
           M 23.00,58.00
           C 23.00,58.00 24.00,59.00 24.00,59.00
             24.00,59.00 24.00,58.00 24.00,58.00
             24.00,58.00 23.00,58.00 23.00,58.00 Z
           M 51.00,62.00
           C 49.47,73.53 45.58,89.92 36.67,98.02
             34.42,100.07 32.13,101.26 29.00,100.85
             25.30,100.36 16.81,94.96 17.25,103.96
             17.40,106.89 19.27,107.94 22.02,107.72
             22.02,107.72 35.96,103.77 35.96,103.77
             37.34,103.17 38.39,102.47 39.48,101.44
             47.67,93.76 53.76,73.19 54.00,62.00
             54.00,62.00 51.00,62.00 51.00,62.00 Z
           M 66.00,70.00
           C 66.00,70.00 61.42,87.00 61.42,87.00
             61.42,87.00 55.00,104.00 55.00,104.00
             56.57,103.17 57.06,103.15 58.37,101.71
             63.26,96.33 69.68,77.07 68.00,70.00
             68.00,70.00 66.00,70.00 66.00,70.00 Z
           M 39.00,71.00
           C 39.00,71.00 30.04,91.00 30.04,91.00
             30.04,91.00 30.04,96.00 30.04,96.00
             30.04,96.00 39.00,84.00 39.00,84.00
             39.00,84.00 41.00,71.00 41.00,71.00
             41.00,71.00 39.00,71.00 39.00,71.00 Z
           M 55.00,73.00
           C 55.00,73.00 49.97,87.00 49.97,87.00
             49.97,87.00 42.00,102.00 42.00,102.00
             47.00,101.95 48.04,99.10 50.22,95.00
             54.44,87.06 56.97,82.07 57.00,73.00
             57.00,73.00 55.00,73.00 55.00,73.00 Z
           M 137.00,103.00
           C 140.58,100.60 140.29,97.78 143.22,96.02
             144.69,95.14 146.35,95.09 148.00,95.02
             155.43,94.72 157.81,95.59 159.79,103.00
             163.38,100.34 161.06,97.49 159.79,94.00
             159.79,94.00 150.00,73.00 150.00,73.00
             145.49,77.56 137.69,96.48 137.00,103.00 Z
           M 184.26,96.89
           C 180.37,102.49 172.37,101.95 169.17,95.96
             167.30,92.43 168.00,78.69 168.00,74.00
             168.00,74.00 166.00,74.00 166.00,74.00
             166.00,79.37 164.91,95.06 167.60,98.94
             171.53,104.64 187.73,106.71 188.00,92.00
             188.00,92.00 188.00,73.00 188.00,73.00
             183.12,79.63 188.83,90.33 184.26,96.89 Z
           M 212.00,73.00
           C 212.00,73.00 212.00,75.00 212.00,75.00
             212.00,75.00 223.00,75.00 223.00,75.00
             223.00,75.00 223.00,103.00 223.00,103.00
             223.00,103.00 225.00,103.00 225.00,103.00
             225.00,103.00 225.00,75.00 225.00,75.00
             225.00,75.00 235.00,75.00 235.00,75.00
             235.00,75.00 235.00,73.00 235.00,73.00
             235.00,73.00 212.00,73.00 212.00,73.00 Z
           M 76.00,74.00
           C 75.04,78.78 69.37,93.42 71.69,96.73
             73.86,99.82 79.64,100.39 83.00,101.92
             84.88,102.78 86.83,104.35 88.98,104.26
             91.97,104.13 94.33,101.04 93.34,98.07
             92.24,94.87 87.82,93.80 85.00,98.07
             75.59,96.10 73.07,96.00 77.00,86.00
             77.00,86.00 84.00,87.82 84.00,87.82
             88.11,89.03 96.61,92.40 95.41,84.00
             95.21,82.58 94.54,81.30 94.00,80.00
             94.00,80.00 77.00,84.00 77.00,84.00
             77.00,84.00 79.00,74.00 79.00,74.00
             79.00,74.00 76.00,74.00 76.00,74.00 Z
           M 115.99,83.00
           C 118.53,89.18 121.37,98.36 126.00,103.00
             126.00,103.00 138.00,74.00 138.00,74.00
             133.91,75.58 133.81,78.13 132.15,82.00
             132.15,82.00 125.00,98.00 125.00,98.00
             122.88,91.89 118.01,78.53 114.00,74.00
             113.10,77.62 114.62,79.67 115.99,83.00 Z
           M 196.00,74.00
           C 196.00,74.00 196.00,103.00 196.00,103.00
             196.00,103.00 215.00,103.00 215.00,103.00
             215.00,103.00 215.00,101.00 215.00,101.00
             215.00,101.00 199.00,101.00 199.00,101.00
             199.00,101.00 199.00,74.00 199.00,74.00
             199.00,74.00 196.00,74.00 196.00,74.00 Z
           M 23.00,83.00
           C 20.62,82.15 16.52,79.96 14.15,80.70
             11.07,81.66 10.01,86.81 12.57,88.82
             17.09,92.38 25.71,84.62 27.69,80.96
             28.68,79.12 28.72,77.97 29.00,76.00
             24.65,77.43 24.27,78.75 23.00,83.00 Z
           M 97.00,82.00
           C 97.00,82.00 98.00,83.00 98.00,83.00
             98.00,83.00 98.00,82.00 98.00,82.00
             98.00,82.00 97.00,82.00 97.00,82.00 Z
           M 38.00,88.00
           C 38.00,88.00 33.00,98.00 33.00,98.00
             38.35,96.27 39.40,93.30 40.00,88.00
             40.00,88.00 38.00,88.00 38.00,88.00 Z
           M 49.00,105.00
           C 53.62,100.96 56.35,96.11 57.00,90.00
             52.00,92.71 48.02,99.30 49.00,105.00 Z
           M 64.00,94.00
           C 62.15,98.95 60.99,100.92 65.00,105.00
             65.00,105.00 67.00,94.00 67.00,94.00
             67.00,94.00 64.00,94.00 64.00,94.00 Z
           M 17.00,98.00
           C 17.00,98.00 18.00,99.00 18.00,99.00
             18.00,99.00 18.00,98.00 18.00,98.00
             18.00,98.00 17.00,98.00 17.00,98.00 Z
           M 51.00,104.00
           C 51.00,104.00 52.00,105.00 52.00,105.00
             52.00,105.00 52.00,104.00 52.00,104.00
             52.00,104.00 51.00,104.00 51.00,104.00 Z
           M 62.00,104.00
           C 62.00,104.00 63.00,105.00 63.00,105.00
             63.00,105.00 63.00,104.00 63.00,104.00
             63.00,104.00 62.00,104.00 62.00,104.00 Z" />
</svg>
